<?xml version="1.0" standalone="no"?>
<!DOCTYPE svg PUBLIC "-//W3C//DTD SVG 20010904//EN"
 "http://www.w3.org/TR/2001/REC-SVG-20010904/DTD/svg10.dtd">
<svg version="1.0" xmlns="http://www.w3.org/2000/svg"
 width="700.000000pt" height="700.000000pt" viewBox="0 0 700.000000 700.000000"
 preserveAspectRatio="xMidYMid meet">
<metadata>
Created by potrace 1.14, written by Peter Selinger 2001-2017
</metadata>
<g transform="translate(0.000000,700.000000) scale(0.100000,-0.100000)"
fill="#000000" stroke="none">
<path d="M1640 6985 c-581 -71 -1088 -405 -1387 -913 -131 -222 -215 -484
-242 -752 -15 -141 -15 -3499 0 -3641 80 -789 643 -1436 1414 -1625 223 -54
207 -54 2071 -54 1138 0 1757 4 1825 11 883 90 1580 786 1669 1668 14 142 14
3500 0 3642 -60 593 -400 1121 -916 1425 -221 130 -490 217 -753 244 -162 16
-3545 12 -3681 -5z m1390 -1162 c14 -15 139 -222 279 -460 140 -238 257 -430
261 -428 4 2 124 203 266 446 269 460 283 479 347 479 69 0 45 38 897 -1412
652 -1110 814 -1392 818 -1426 l5 -44 -824 -825 c-453 -453 -837 -831 -853
-840 -65 -34 -78 -25 -381 278 l-280 279 -275 -275 c-290 -290 -311 -306 -373
-286 -48 16 -1676 1647 -1679 1681 0 14 0 35 1 48 1 12 366 642 810 1400 636
1082 816 1382 842 1400 45 32 103 25 139 -15z"/>
<path d="M2225 4283 c-396 -674 -721 -1231 -723 -1237 -1 -6 325 -338 725
-739 l728 -727 225 225 225 225 -468 468 -467 468 0 45 c0 41 39 111 476 854
262 446 478 817 480 825 4 15 -459 813 -474 817 -4 1 -331 -550 -727 -1224z"/>
<path d="M4167 5489 c-61 -98 -460 -785 -460 -793 0 -6 212 -373 473 -815 260
-443 477 -818 482 -833 6 -16 7 -41 3 -56 -4 -18 -162 -183 -471 -492 l-464
-465 228 -228 227 -227 728 728 728 728 -722 1230 c-397 676 -725 1233 -729
1238 -5 4 -15 -2 -23 -15z"/>
<path d="M3151 3761 c-226 -384 -413 -705 -416 -712 -3 -9 153 -172 415 -434
l420 -420 420 420 421 421 -418 712 c-230 391 -421 711 -424 712 -4 0 -192
-314 -418 -699z"/>
</g>
</svg>
