<svg width="650" height="150" xmlns="http://www.w3.org/2000/svg" xml:space="preserve" enable-background="new 0 0 1000 803" version="1.1">
 <g>
  <title>Layer 1</title>
  <rect fill="#ee6352" x="0" y="0" width="150" height="150" id="svg_2" rx="40"/>
  <g fill="#ee6352" featurekey="symbolFeature-0" id="SvgjsG4779" transform="matrix(2.6341 0 0 2.6341 -29.022 -30.1867)">
   <path id="svg_1" d="m58.89117,43.37587l-13.03,-22.18c-0.17,-0.29 -0.47,-0.46 -0.81,-0.46s-0.64,0.18 -0.81,0.46l-4.2,7.16l-4.21,-7.15c-0.17,-0.29 -0.47,-0.46 -0.81,-0.46s-0.64,0.18 -0.81,0.46l-13.02,22.17c-0.22,0.37 -0.16,0.83 0.14,1.13l13.03,13.03c0.18,0.18 0.42,0.27 0.66,0.27s0.48,-0.09 0.66,-0.27l4.36,-4.35l4.35,4.35c0.18,0.18 0.42,0.27 0.66,0.27s0.48,-0.09 0.66,-0.27l13.03,-13.03c0.31,-0.3 0.37,-0.77 0.15,-1.13zm-23.86,12.18l-11.86,-11.86l11.86,-20.18l3.93,6.68l-7.75,13.18c-0.22,0.37 -0.16,0.83 0.14,1.13l7.36,7.36l-3.68,3.69zm5.01,-23.51l6.85,11.65l-6.85,6.85l-6.85,-6.85l6.85,-11.65zm5.01,23.51l-3.69,-3.69l7.36,-7.36c0.3,-0.3 0.36,-0.77 0.14,-1.13l-7.74,-13.17l3.93,-6.68l11.86,20.18l-11.86,11.85z" fill="#ffffff" xmlns="http://www.w3.org/2000/svg"/>
  </g>
  <g stroke="null">
   <g stroke="#000" fill="#000" stroke-width="0.25mm" font-size="9pt" fill-rule="evenodd" stroke-linecap="round" id="svg_4">
    <path stroke="null" vector-effect="non-scaling-stroke" d="m526.9559,102.01651l0,-6.40452l-0.36493,0q-0.51091,1.4723 -1.35026,2.76057a9.81672,9.90124 0 0 1 -1.88087,2.1238a11.13851,11.23441 0 0 1 -0.23575,0.19508q-1.27727,1.03061 -3.06544,1.61953a11.35382,11.45157 0 0 1 -1.98962,0.45126q-0.94007,0.12883 -1.99327,0.13692a18.48682,18.64598 0 0 1 -0.14086,0.00074a14.40175,14.52574 0 0 1 -3.73619,-0.46083a9.99335,10.07939 0 0 1 -5.31417,-3.44077a12.75809,12.86793 0 0 1 -2.2261,-4.3006q-0.91233,-2.9262 -0.91233,-6.81529l0,-24.293l9.34231,0l0,23.336q0,3.97522 1.53272,6.07325a4.86092,4.90277 0 0 0 2.70197,1.82418q0.9751,0.27385 2.18814,0.27385q1.38675,0 2.737,-0.36808a7.24467,7.30704 0 0 0 1.66629,-0.67726a6.39875,6.45384 0 0 0 0.70578,-0.46378q1.02181,-0.77296 1.6787,-1.91399a4.79596,4.83725 0 0 0 0.57951,-1.6718a6.29292,6.3471 0 0 0 0.07737,-1.01515l0,-25.39723l9.34231,0l0,38.42711l-9.34231,0zm57.58656,-6.18367l5.69297,-5.59475a18.435,18.59371 0 0 0 2.80269,2.63395a15.73814,15.87363 0 0 0 1.83197,1.19404q2.51804,1.39869 5.80245,1.39869a15.28854,15.42016 0 0 0 1.69694,-0.0876q1.75825,-0.19876 2.8078,-0.84657a3.73984,3.77204 0 0 0 0.34888,-0.24367a3.76612,3.79854 0 0 0 1.47725,-2.78339a5.20177,5.24655 0 0 0 0.01898,-0.45568a4.30038,4.3374 0 0 0 -0.14889,-1.17122a3.18441,3.21183 0 0 0 -0.90942,-1.51574a3.7143,3.74627 0 0 0 -0.8919,-0.60291q-0.88898,-0.44316 -2.25967,-0.68536a14.94915,15.07785 0 0 0 -0.46128,-0.07362l-3.79531,-0.51531a27.53864,27.77573 0 0 1 -3.75298,-0.7413q-1.86773,-0.51751 -3.35958,-1.28385a12.20558,12.31066 0 0 1 -2.33923,-1.54518a8.82264,8.8986 0 0 1 -2.92239,-4.96092a13.67699,13.79474 0 0 1 -0.32552,-3.09993q0,-2.79738 1.02181,-5.04264q1.02181,-2.24526 2.91947,-3.82799a12.6289,12.73763 0 0 1 3.04793,-1.86173a15.57319,15.70726 0 0 1 1.51375,-0.56757a17.88687,18.04086 0 0 1 3.38221,-0.70671a22.96747,23.16521 0 0 1 2.56621,-0.13987q2.52972,0 4.54343,0.33716a19.4933,19.66113 0 0 1 0.38318,0.06773a19.48382,19.65156 0 0 1 2.41513,0.61101a15.90017,16.03706 0 0 1 1.48966,0.56684q1.75168,0.77296 3.21142,1.91399a29.97931,30.23742 0 0 1 2.67278,2.36599a32.91484,33.19822 0 0 1 0.17371,0.17373l-5.47401,5.52114q-1.6787,-1.76676 -4.01427,-2.94461a11.20201,11.29845 0 0 0 -4.84997,-1.1749a13.03033,13.14251 0 0 0 -0.2591,-0.00294q-2.67934,0 -4.04858,0.84363a3.38075,3.40985 0 0 0 -0.36712,0.2606a3.59606,3.62702 0 0 0 -1.03349,1.31477q-0.31603,0.70008 -0.31676,1.55475a4.70254,4.74302 0 0 0 0,0.00147q0,1.5923 0.78315,2.54782a3.04866,3.0749 0 0 0 0.34815,0.35998q1.13129,0.9938 3.83181,1.4355l3.8683,0.51531q12.33476,1.76676 12.33476,11.33673a11.81218,11.91388 0 0 1 -0.51018,3.5431a10.68745,10.77947 0 0 1 -0.62112,1.57316q-1.13129,2.31888 -3.17492,3.97522a13.92514,14.04503 0 0 1 -3.04355,1.85731a17.51682,17.66763 0 0 1 -1.88306,0.71922a19.28018,19.44618 0 0 1 -3.66758,0.76854a24.97388,25.18889 0 0 1 -2.79174,0.15165a26.74454,26.9748 0 0 1 -4.00916,-0.28636q-2.16625,-0.33127 -3.97413,-1.04681a14.7988,14.92621 0 0 1 -1.21304,-0.54402q-3.72232,-1.87719 -6.56881,-5.18987zm-109.40716,6.18367l-5.18206,0a8.50369,8.5769 0 0 1 -2.03779,-0.23262a5.88711,5.9378 0 0 1 -2.81583,-1.57095a7.4899,7.55439 0 0 1 -1.77942,-2.93062a10.34733,10.43642 0 0 1 -0.44668,-1.89117l-0.43792,0a10.22691,10.31495 0 0 1 -1.2072,2.9262a8.43289,8.50549 0 0 1 -2.6611,2.70536q-2.91947,1.87719 -7.22569,1.87719a17.80512,17.95841 0 0 1 -3.54059,-0.33274q-2.08012,-0.42623 -3.68364,-1.39722a9.4912,9.57291 0 0 1 -1.75314,-1.36188a10.23639,10.32452 0 0 1 -2.96326,-5.92455a14.52656,14.65162 0 0 1 -0.17517,-2.32035a13.04711,13.15944 0 0 1 0.45617,-3.58432a9.1759,9.2549 0 0 1 3.77707,-5.2863a14.5667,14.69211 0 0 1 4.02449,-1.88087q1.89985,-0.57788 4.19966,-0.83038a35.32632,35.63047 0 0 1 3.81867,-0.19655l6.49582,0l0,-2.79738q0,-2.45654 -0.96561,-4.0665a5.32657,5.37243 0 0 0 -0.71308,-0.93933a5.03244,5.07576 0 0 0 -1.89985,-1.22275q-0.80796,-0.30624 -1.81445,-0.43948a12.93544,13.04681 0 0 0 -1.68672,-0.10453a12.34352,12.44979 0 0 0 -2.19033,0.18477q-1.23202,0.22379 -2.22245,0.72143a6.6199,6.67689 0 0 0 -0.87876,0.52929q-2.00714,1.4355 -3.39388,3.4231l-5.54699,-5.00583q2.11662,-3.31268 5.61998,-5.3371q2.75452,-1.59156 6.90674,-1.93166a29.19544,29.44679 0 0 1 2.36258,-0.09276q5.15287,0 8.65477,1.568a12.1939,12.29888 0 0 1 3.0961,1.96552a11.34214,11.43979 0 0 1 3.61284,6.27569a17.39348,17.54323 0 0 1 0.40143,3.8832l0,18.10933l3.79531,0l0,7.50874zm-147.14132,0l-11.09399,0l-12.6997,-38.42711l9.19633,0l5.32803,16.56341l3.72232,13.69242l0.51091,0l3.72232,-13.69242l5.18206,-16.56341l8.90439,0l-12.77268,38.42711zm95.61266,0l-11.09399,0l-12.6997,-38.42711l9.19633,0l5.32803,16.56341l3.72232,13.69242l0.51091,0l3.72232,-13.69242l5.18206,-16.56341l8.90439,0l-12.77268,38.42711zm-44.74089,-19.9497l0,3.09184l-25.32641,0l0,0.957q0,4.19606 2.33558,6.73579a7.40451,7.46826 0 0 0 3.34352,2.05386q1.18385,0.36439 2.61147,0.45568a15.49655,15.62997 0 0 0 0.97875,0.03018a13.78209,13.90075 0 0 0 2.42462,-0.20244q1.36923,-0.24735 2.4779,-0.79504a7.62858,7.69426 0 0 0 0.82694,-0.47482a16.16876,16.30796 0 0 0 3.53256,-3.19637a18.4839,18.64304 0 0 0 0.44522,-0.558l5.03609,5.66837a15.16811,15.2987 0 0 1 -4.92734,4.43531a18.6598,18.82045 0 0 1 -1.45901,0.75456q-4.05077,1.87719 -9.3788,1.87719q-4.23323,0 -7.55413,-1.4355q-3.3209,-1.4355 -5.61998,-4.04883a17.11978,17.26717 0 0 1 -2.80561,-4.43384a20.88297,21.06277 0 0 1 -0.73425,-1.89706a23.36671,23.56789 0 0 1 -1.03568,-4.73861a30.28659,30.54734 0 0 1 -0.20509,-3.61671a29.29689,29.54912 0 0 1 0.34012,-4.60021a22.87989,23.07688 0 0 1 0.86416,-3.64469a19.21377,19.37919 0 0 1 1.8035,-3.99436a16.34976,16.49053 0 0 1 1.66337,-2.29974q2.26259,-2.61334 5.54699,-4.04883a17.14094,17.28852 0 0 1 4.65802,-1.26176a21.888,22.07645 0 0 1 2.78663,-0.17373a21.89384,22.08234 0 0 1 3.67269,0.29593a15.85418,15.99068 0 0 1 4.0639,1.24999a15.38853,15.52102 0 0 1 4.07996,2.75615a14.16089,14.28281 0 0 1 1.32106,1.43991a17.72484,17.87744 0 0 1 2.93115,5.39231a20.45016,20.62623 0 0 1 0.24378,0.75456a24.68266,24.89517 0 0 1 1.02692,6.11963a28.48089,28.7261 0 0 1 0.03138,1.35231zm200.7136,0l0,3.09184l-25.32641,0l0,0.957q0,4.19606 2.33558,6.73579a7.40451,7.46826 0 0 0 3.34352,2.05386q1.18385,0.36439 2.61147,0.45568a15.49655,15.62997 0 0 0 0.97875,0.03018a13.78209,13.90075 0 0 0 2.42462,-0.20244q1.36923,-0.24735 2.4779,-0.79504a7.62858,7.69426 0 0 0 0.82694,-0.47482a16.16876,16.30796 0 0 0 3.53256,-3.19637a18.4839,18.64304 0 0 0 0.44522,-0.558l5.03609,5.66837a15.16811,15.2987 0 0 1 -4.92734,4.43531a18.6598,18.82045 0 0 1 -1.45901,0.75456q-4.05077,1.87719 -9.3788,1.87719q-4.23323,0 -7.55413,-1.4355q-3.3209,-1.4355 -5.61998,-4.04883a17.11978,17.26717 0 0 1 -2.80561,-4.43384a20.88297,21.06277 0 0 1 -0.73425,-1.89706a23.36671,23.56789 0 0 1 -1.03568,-4.73861a30.28659,30.54734 0 0 1 -0.20509,-3.61671a29.29689,29.54912 0 0 1 0.34012,-4.60021a22.87989,23.07688 0 0 1 0.86416,-3.64469a19.21377,19.37919 0 0 1 1.8035,-3.99436a16.34976,16.49053 0 0 1 1.66337,-2.29974q2.26259,-2.61334 5.54699,-4.04883a17.14094,17.28852 0 0 1 4.65802,-1.26176a21.888,22.07645 0 0 1 2.78663,-0.17373a21.89384,22.08234 0 0 1 3.67269,0.29593a15.85418,15.99068 0 0 1 4.0639,1.24999a15.38853,15.52102 0 0 1 4.07996,2.75615a14.16089,14.28281 0 0 1 1.32106,1.43991a17.72484,17.87744 0 0 1 2.93115,5.39231a20.45016,20.62623 0 0 1 0.24378,0.75456a24.68266,24.89517 0 0 1 1.02692,6.11963a28.48089,28.7261 0 0 1 0.03138,1.35231zm-360.6276,-9.64358l-7.66361,3.45991q-0.65688,-2.4293 -2.44506,-4.01203q-1.68162,-1.4885 -4.49452,-1.57684a11.54213,11.6415 0 0 0 -0.35909,-0.00589a9.94956,10.03522 0 0 0 -2.26697,0.2444q-2.27865,0.53813 -3.60847,2.25851a8.76936,8.84486 0 0 0 -1.57651,3.35759q-0.31311,1.27281 -0.3518,2.76351a16.16,16.29913 0 0 0 -0.00584,0.43065l0,6.99344q0,3.40028 1.36412,5.68456a7.87965,7.94749 0 0 0 0.57003,0.83038q1.89255,2.4131 5.70684,2.46537a12.49898,12.60659 0 0 0 0.1686,0.00074a10.54586,10.63665 0 0 0 2.03852,-0.18625q1.19114,-0.23704 2.11516,-0.77517a5.53678,5.58444 0 0 0 1.02838,-0.76854a11.41659,11.51488 0 0 0 2.43557,-3.3701a13.65947,13.77707 0 0 0 0.41092,-0.93638l7.1527,3.45991a17.61317,17.76481 0 0 1 -2.03779,3.95829a13.58284,13.69978 0 0 1 -3.72816,3.66088a15.25204,15.38336 0 0 1 -5.60611,2.20477a20.89319,21.07307 0 0 1 -3.80918,0.33495a22.02959,22.21926 0 0 1 -3.98143,-0.34673a16.91979,17.06546 0 0 1 -3.53621,-1.05196q-3.2844,-1.39869 -5.5105,-4.04883a17.24458,17.39305 0 0 1 -2.69832,-4.4677a21.02165,21.20263 0 0 1 -0.69556,-1.90001q-1.16779,-3.71756 -1.16779,-8.35532q0,-4.63775 1.16779,-8.31851q1.16779,-3.68076 3.39388,-6.29409q2.2261,-2.61334 5.5105,-4.01203q3.2844,-1.39869 7.51764,-1.39869q5.76595,0 9.52477,2.57653a14.25577,14.37851 0 0 1 5.30322,6.78732a17.44019,17.59034 0 0 1 0.1343,0.35335zm62.54966,29.59329l-5.03609,0q-4.81713,0 -7.07972,-2.4293a7.8833,7.95117 0 0 1 -1.81372,-3.30606q-0.35034,-1.22937 -0.42697,-2.698a15.87827,16.01497 0 0 1 -0.0219,-0.84216l0,-45.1997l9.34231,0l0,46.96646l5.03609,0l0,7.50874zm215.6029,0l-5.03609,0q-4.81713,0 -7.07972,-2.4293a7.8833,7.95117 0 0 1 -1.81372,-3.30606q-0.35034,-1.22937 -0.42697,-2.698a15.87827,16.01497 0 0 1 -0.0219,-0.84216l0,-45.1997l9.34231,0l0,46.96646l5.03609,0l0,7.50874zm-260.07009,0.4888a20.67934,20.85738 0 0 0 4.10551,0.39458a22.00697,22.19644 0 0 0 2.53629,-0.14355a17.56937,17.72064 0 0 0 4.83537,-1.25514q3.2844,-1.39869 5.58349,-4.04883a16.79936,16.944 0 0 0 1.6349,-2.23348a19.6276,19.79658 0 0 0 1.90495,-4.13423a22.73903,22.9348 0 0 0 0.90066,-3.75216a29.31148,29.56384 0 0 0 0.34012,-4.60316a29.99537,30.25362 0 0 0 -0.22042,-3.74259a22.84632,23.04301 0 0 0 -1.02035,-4.57592q-1.24077,-3.68076 -3.53986,-6.29409q-2.29908,-2.61334 -5.58349,-4.01203a16.89425,17.0397 0 0 0 -3.14135,-0.98055a20.75452,20.9332 0 0 0 -4.23031,-0.41813a21.76538,21.95277 0 0 0 -2.71073,0.16563a17.157,17.30471 0 0 0 -4.62444,1.23305q-3.24791,1.39869 -5.54699,4.01203a16.50669,16.6488 0 0 0 -1.63417,2.20477a19.25099,19.41673 0 0 0 -1.90568,4.08932q-1.24077,3.68076 -1.24077,8.31851a30.28659,30.54734 0 0 0 0.20509,3.61671a23.36671,23.56789 0 0 0 1.03568,4.73861q1.24077,3.71756 3.53986,6.36771q2.29908,2.65015 5.54699,4.04883a16.56581,16.70843 0 0 0 3.22966,1.00411zm51.5469,-0.4888l0,-38.42711l9.34231,0l0,38.42711l-9.34231,0zm-39.48584,-15.68003l0,-7.14067a14.05871,14.17975 0 0 0 -0.20655,-2.51322q-0.25253,-1.41047 -0.81234,-2.52132a6.81258,6.87124 0 0 0 -1.09772,-1.59082a6.95929,7.0192 0 0 0 -3.82086,-2.09141a10.24661,10.33483 0 0 0 -2.01808,-0.19066a9.49558,9.57733 0 0 0 -2.47279,0.30771a6.852,6.91099 0 0 0 -3.29316,1.97436q-1.78161,1.92136 -2.06334,5.3025a15.6615,15.79634 0 0 0 -0.05328,1.32286l0,7.14067a14.4689,14.59347 0 0 0 0.20655,2.55224q0.24524,1.38985 0.78096,2.48598a6.77974,6.83811 0 0 0 1.12911,1.66076a6.99286,7.05307 0 0 0 4.02449,2.13705a10.11597,10.20306 0 0 0 1.74146,0.14502a9.84518,9.92995 0 0 0 2.46841,-0.29446a6.86149,6.92056 0 0 0 3.37053,-1.98761q2.11662,-2.28207 2.11662,-6.69898zm104.44406,-7.58236l0,0.58892l15.61917,0l0,-0.66254q0,-3.58579 -1.57359,-5.94369a7.95994,8.02847 0 0 0 -0.36055,-0.49764a6.27832,6.33237 0 0 0 -4.06901,-2.34759a9.39194,9.4728 0 0 0 -1.51448,-0.11852a9.00438,9.0819 0 0 0 -2.64942,0.3747a7.01914,7.07957 0 0 0 -3.26251,2.12821a8.58762,8.66156 0 0 0 -1.99108,4.22036a12.10631,12.21054 0 0 0 -0.19852,2.25778zm200.7136,0l0,0.58892l15.61917,0l0,-0.66254q0,-3.58579 -1.57359,-5.94369a7.95994,8.02847 0 0 0 -0.36055,-0.49764a6.27832,6.33237 0 0 0 -4.06901,-2.34759a9.39194,9.4728 0 0 0 -1.51448,-0.11852a9.00438,9.0819 0 0 0 -2.64942,0.3747a7.01914,7.07957 0 0 0 -3.26251,2.12821a8.58762,8.66156 0 0 0 -1.99108,4.22036a12.10631,12.21054 0 0 0 -0.19852,2.25778zm-92.25527,11.77842l0,-5.07945l-5.98491,0q-5.06309,0 -6.61406,2.26808a4.16389,4.19974 0 0 0 -0.68462,2.44329l0,1.25146a5.77982,5.82958 0 0 0 0.14597,1.35378a3.62379,3.65499 0 0 0 1.35026,2.14294q1.15246,0.87896 3.06106,1.08067a11.59249,11.69229 0 0 0 1.20866,0.06036a11.81729,11.91903 0 0 0 2.52242,-0.25839a8.63871,8.71309 0 0 0 2.80561,-1.1403q1.99327,-1.27281 2.17209,-3.64395a6.24913,6.30293 0 0 0 0.01752,-0.4785zm-174.2194,-37.24926l0,-1.4723a5.35431,5.40041 0 0 1 0.22772,-1.60775a4.34417,4.38157 0 0 1 1.04955,-1.77854q0.93131,-0.96583 2.73481,-1.22716a10.29259,10.38121 0 0 1 1.46192,-0.09791a9.81161,9.89608 0 0 1 1.48017,0.10527q0.7795,0.11999 1.39989,0.37838a3.88071,3.91412 0 0 1 1.28019,0.84142a4.43249,4.47065 0 0 1 1.29333,2.88277a5.95864,6.00994 0 0 1 0.02044,0.50353l0,1.4723a5.19301,5.23772 0 0 1 -0.2467,1.64898a4.32155,4.35875 0 0 1 -1.06707,1.73732a3.96099,3.99509 0 0 1 -1.44295,0.9062q-1.11597,0.41887 -2.7173,0.41887q-2.91947,0 -4.19674,-1.32507a4.46387,4.5023 0 0 1 -1.24588,-2.75983a6.03309,6.08503 0 0 1 -0.03138,-0.62646z"/>
   </g>
  </g>
 </g>

</svg>